# xmcd
#
# Track frame offsets:
#	150
#	13378
#	33535
#	63988
#	84854
#	109525
#	128594
#	151881
#	178228
#	199515
#
# Disc length: 3153 seconds
#
# Revision: 1
# Processed by: cddbd v1.4PL0 Copyright (c) Steve Scherf et al.
# Submitted via: EasyCDDAExtractor 5.1.0
#
DISCID=780c4f0a
DTITLE=Barnstormer - Sold
DYEAR=2001
DGENRE=Country Rock
TTITLE0=Working Late 
TTITLE1=Melt My Heart 
TTITLE2=8 Years 
TTITLE3=Light On Your Face 
TTITLE4=Finally Alone 
TTITLE5=The Highwayman 
TTITLE6=Out of Reach 
TTITLE7=Help Me Out 
TTITLE8=A Pair of Brown Eyes 
TTITLE9=Sold 
EXTD=
EXTT0=
EXTT1=
EXTT2=
EXTT3=
EXTT4=
EXTT5=
EXTT6=
EXTT7=
EXTT8=
EXTT9=
PLAYORDER=
